<svg width="264" height="48" viewBox="0 0 264 48" fill="none" xmlns="http://www.w3.org/2000/svg">
<path d="M132 0C118.8 0 108 10.8193 108 24.1446C108 36.1928 116.784 46.1928 128.256 48V31.1325H122.16V24.1446H128.256V18.8193C128.256 12.7711 131.832 9.44578 137.328 9.44578C139.944 9.44578 142.68 9.90362 142.68 9.90362V15.8554H139.656C136.68 15.8554 135.744 17.7108 135.744 19.6145V24.1446H142.416L141.336 31.1325H135.744V48C141.399 47.1032 146.549 44.2061 150.264 39.8315C153.978 35.4569 156.013 29.8931 156 24.1446C156 10.8193 145.2 0 132 0Z" fill="black"/>
<path d="M240 0C226.746 0 216 10.7464 216 24C216 37.2536 226.746 48 240 48C253.254 48 264 37.2536 264 24C264 10.7464 253.254 0 240 0ZM251.534 18.0911C251.55 18.3429 251.55 18.6054 251.55 18.8625C251.55 26.7268 245.561 35.7857 234.616 35.7857C231.241 35.7857 228.113 34.8054 225.477 33.1179C225.959 33.1714 226.42 33.1929 226.913 33.1929C229.698 33.1929 232.259 32.25 234.3 30.6536C231.686 30.6 229.489 28.8857 228.739 26.5286C229.655 26.6625 230.48 26.6625 231.423 26.4214C230.077 26.1479 228.867 25.4169 227.999 24.3524C227.131 23.2879 226.658 21.9557 226.661 20.5821V20.5071C227.448 20.9518 228.375 21.225 229.345 21.2625C228.53 20.7193 227.861 19.9833 227.398 19.1198C226.936 18.2563 226.694 17.2921 226.693 16.3125C226.693 15.2036 226.982 14.1911 227.502 13.3125C228.996 15.1518 230.86 16.6561 232.974 17.7277C235.087 18.7992 237.403 19.414 239.77 19.5321C238.929 15.4875 241.95 12.2143 245.582 12.2143C247.296 12.2143 248.839 12.9321 249.927 14.0893C251.271 13.8375 252.557 13.3339 253.704 12.6589C253.259 14.0357 252.327 15.1982 251.089 15.9321C252.289 15.8036 253.446 15.4714 254.518 15.0054C253.709 16.1946 252.696 17.25 251.534 18.0911Z" fill="black"/>
<path d="M23.9935 15.9966C19.5867 15.9966 15.9903 19.593 15.9903 24C15.9903 28.407 19.5867 32.0034 23.9935 32.0034C28.4004 32.0034 31.9968 28.407 31.9968 24C31.9968 19.593 28.4004 15.9966 23.9935 15.9966ZM47.9973 24C47.9973 20.6858 48.0273 17.4015 47.8412 14.0933C47.6551 10.2507 46.7785 6.84041 43.9687 4.03051C41.1528 1.2146 37.7486 0.344017 33.9061 0.157891C30.5919 -0.0282345 27.3077 0.00178587 23.9996 0.00178587C20.6854 0.00178587 17.4012 -0.0282345 14.093 0.157891C10.2505 0.344017 6.84028 1.22061 4.03043 4.03051C1.21458 6.84641 0.344011 10.2507 0.157888 14.0933C-0.028234 17.4075 0.00178584 20.6918 0.00178584 24C0.00178584 27.3082 -0.028234 30.5985 0.157888 33.9067C0.344011 37.7493 1.22059 41.1596 4.03043 43.9695C6.84628 46.7854 10.2505 47.656 14.093 47.8421C17.4072 48.0282 20.6914 47.9982 23.9996 47.9982C27.3137 47.9982 30.5979 48.0282 33.9061 47.8421C37.7486 47.656 41.1588 46.7794 43.9687 43.9695C46.7845 41.1536 47.6551 37.7493 47.8412 33.9067C48.0333 30.5985 47.9973 27.3142 47.9973 24ZM23.9935 36.3143C17.1791 36.3143 11.6795 30.8146 11.6795 24C11.6795 17.1854 17.1791 11.6857 23.9935 11.6857C30.808 11.6857 36.3076 17.1854 36.3076 24C36.3076 30.8146 30.808 36.3143 23.9935 36.3143ZM36.812 14.0573C35.2209 14.0573 33.9361 12.7724 33.9361 11.1813C33.9361 9.59026 35.2209 8.3054 36.812 8.3054C38.403 8.3054 39.6879 9.59026 39.6879 11.1813C39.6883 11.5591 39.6143 11.9333 39.4699 12.2825C39.3256 12.6316 39.1137 12.9488 38.8466 13.216C38.5794 13.4831 38.2622 13.695 37.9131 13.8393C37.564 13.9837 37.1898 14.0578 36.812 14.0573Z" fill="black"/>
</svg>
